<svg xmlns="http://www.w3.org/2000/svg" width="512" height="512" fill="none"><path fill="#2D505B" d="M200 0q3 1 3 4v2l1 3v1a239 239 0 0 0 21 63q12 25 29 49c15 20 15 20 19 28l1 1q10 17 15 35l1-1q22-17 52-14 20 3 33 18 9 11 10 24 2 11 7 20c4 9 4 9 3 13l-4 1-6-1q-14-3-27 4-12 11-13 26a118 118 0 0 1-37 63 91 91 0 0 1-26 16q-26 13-57 12l-2 1-42-3-22-2h-2c-31-2-63 10-92 21q-5 2-10 0-19-11-33-29l-1-2a88 88 0 0 1-21-51v-1q0-6 2-7 3-2 7-1l8 2h2c38 11 80 16 117 2l3-2-2-1q-16-3-30-13l-2-2-2-1v-1h-1q-14-13-18-31l-1-4-4-1a70 70 0 0 1-34-42q-2-5-1-11c0-7 0-7-2-12l-6-6a64 64 0 0 1-16-50l4-12q1-6-1-12-6-28 12-54c12-16 12-16 19-18q5 2 9 8l17 23 16 20 1 2h2l3 6h1l3 2 1 1 15 14 11 9 2 2 1 1 9 6-1-2q-7-27 5-52l3-4 1-1 1-1h2v-2l4-3q3-2 3-6l1-2a58 58 0 0 1 27-42l1-1z"/><path fill="#FCFDFE" d="m53 57 5 4 1 1 1 2 21 25 1 1 5 5 1 3 2 1 2 2 10 9 2 2 13 11 16 12 6 5 32 20 8 4 14 8 2 2 8 4a401 401 0 0 1 69 48l2 3 2 1 1-2 5-7 1-1 12-13 2-2c8-7 19-15 31-15q16-1 29 8 10 13 10 29h-2a42 42 0 0 0-32 23l-2 2-4 12-4 13q-8 36-41 56l-3 1q-14 9-32 12h-1q-13 3-25 2h-2q-25 0-49-4l-8-2-60-10-12-4-6-2v-1h1q26 0 50-7h2c26-8 53-23 72-42v-1h-1l-6 2h-1a98 98 0 0 1-30 3q-20 0-37-7l-2-1q-18-8-27-25v-1h2q17 2 33-3h-2q-32-4-57-24l-1-1q-13-13-16-31v-3l30 8-2-2-27-19-2-2q-9-7-15-17l-1-2q-7-13-4-28v-1l6 4q11 9 24 14l1 1 9 3-1-1-20-21q-19-20-18-47 2-9 9-17"/><path fill="#2B4F5A" d="M455 335q6 5 7 12 0 10-8 17l-3 3-2 3-1 1h-2v2l-4 4-2 1-5 5-1 1-3 3h-1l-1 1-4 6-1 1-4 3-3 2-24 22-1 1q-2 4-4 3v1h-1v1l-4 3-3 3q-10 9-22 13l-2 2-20 10q-27 14-56 20l-2 1c-21 4-44 1-65 0-26-2-26-2-52 1l-1 1q-19 6-35 17l-3 3-7 4-1 1-3 2q-4 3-8 3c-11-4-20-15-26-23l-3-3c-11-12-27-31-28-47q0-4 4-6l7-3q25-11 46-26 59-35 126-24l35 9 32 7h2l8 1c15 3 15 3 20 8v1l32-20 1-1 49-37c13-10 29-21 47-13"/><path fill="#2F505B" d="M501 136c5 6 2 16 1 22q-6 23-26 39l-2 1-11 8h-2l-6 3-1 1q-3 16-9 32l-1 4 2-1q19-12 42-17h12l1-1 9 2q3 1 2 3-2 9-11 15l-1 2a78 78 0 0 1-63 17l-1 2-16 27 2-1q27-11 56-6 6 1 10 5 2 3-1 5a65 65 0 0 1-48 19h-3q-14 0-27-5l-28 30-2 2c-8 8-8 8-11 8v1l-4 3-2 1c-38 26-38 26-54 25l-3-1q-3-6-3-11 4-3 10-4 26-8 45-25l3-1 22-20 1-1 2-3q0-4-4-7-11-20-6-41l5-8 6 1 4 4 1 2q9 14 8 32 12-17 21-36l1-1v-6l-3-5-8-16-1-2c-3-9-3-23 1-32l3-3h4l7 8 1 1q6 8 9 17l3-9 1-2v-2l1-2q0-4-3-7l-2-1a62 62 0 0 1-16-47c1-10 1-10 4-14l7 1 1 2h2q17 18 18 41v3l1-1a108 108 0 0 1 27-39c15-13 15-13 23-11"/><path fill="#D6E6E9" d="M366 223h1v4h-2a42 42 0 0 0-32 23l-2 2-4 12-4 13q-8 36-41 56l-3 1q-14 9-32 12h-1q-13 3-25 2h-2q-25 0-49-4l-8-2-58-9-2-1-12-4-6-2v-1h1q26 0 50-7h2c26-8 53-23 72-42v-1h-1l-6 2h-1a98 98 0 0 1-30 3q-20 0-37-7l-2-1q-18-8-27-25l2-1h22l-1 3h3l10 2 32 2 23-2q-3 7-10 12h-1v2h-2v1l-5 1v2l-5 1q18 4 38 3l-2 14-1 2-3 10h-2v2h-1l-1 2q-3 8-9 12l-3 3-4 3-6 4v1h-1v1l-2 1-2 1-9 3v1q31 6 62 3h3l12-3h6l1-1v-1h2l12-5 4-1v-2h4v-1l3-2 2-1 3-1v-2l3-1v-1l4-3 8-7 1-2h1l1-1 2-2h1l1-2 2-5h1l3-5 4-8h1l2-5 4-8 2-4q5-12 14-21l5-5q6-6 14-7h2l-1-2h2l6-1h4z"/><path fill="#D7E7E9" d="M43 121q4 2 6 5l13 8-1 1h-1q0 6 3 11l3 5q2 6 7 12l1 1 1 3 2 4h2v1h1l2 3 2 2q3 1 2 3l2 1v1h2v2h2l5 4 1 1v1l5 2q9 6 19 9l7 3-4 4q-15 5-31 4l1 1q3 1 2 3h1v1h1v1h2v1h1v2h1l2 1h1l3 3 4 2 8 4q7 5 16 7l6 3v1l-3 2-2-2h-4l-2-1h-2q-28-4-49-22l-1-1q-13-13-16-31v-3l30 8-2-2-27-19-2-2q-9-7-15-17l-1-2q-7-13-4-28z"/><path fill="#D6E6E8" d="m53 57 5 4 1 1 1 1v2l3 3h-2l-3 1q-1 18 6 36v4h2l5 11q2 5 6 8l3 5 3 3 2 5h1l4 4v1h-4v-1l-1-1-4-2-2-2-1-1-2-2-14-16q-20-20-18-47 2-9 9-17"/><path fill="#F1F7F8" d="m290 428-1 4-15 8q-19 10-41 13h-24l3-2 2-1h2l11-4 12-3 18-6 5-2z"/><path fill="#305660" d="m342 208 5 3q2 4-1 8-2 4-7 5-3 0-7-3-3-4-1-9 3-6 11-4"/><path fill="#D4E5E6" d="M366 223h1v4h-2a42 42 0 0 0-32 23l-4 10-3-2 1-4h2v-2l-2 1q1-7 7-12l5-5q6-6 14-7h2l-1-2h2l6-1h4z"/><path fill="#F2F7F6" d="m233 445-3 3-1 1v1h1l3 3h-24l3-2 2-1h2l4-1 2-1 7-3z"/><path fill="#385A5C" d="m74 179 5 2 1 1 15 10c-6 2-15-2-20-4l3-3-1-1v-1l-2-1-1-1z"/><path fill="#5E6477" d="m355 250 2 1-2 1q-8 11-10 23c-4 17-11 43-27 53l4-6q17-23 22-49c3-12 3-12 6-17l1-2z"/><path fill="#D3E5E7" d="M189 273h22q1 5-2 6h-1v2l-5 4v-1l-2-1 2-1 2-2 1-1 3-4h-1l-8 2-2 1h-2l-3 1-1-4 1-1z"/><path fill="#455C66" d="M392 235q3 3 3 7 1 2-2 5l-8-1q-12-2-24 2l8-4 19 1-2-2 2-1q3-3 2-6l2 2z"/><path fill="#365A5E" d="m209 275-3 5-2 1-1 1-1 2-2 1-1 1-3 2-1-3 1-1v-2l1-1-7-2 2-1 6-1 4-1h2z"/><path fill="#586372" d="m122 366-6 2h-2l-3 1-24 7-1 1-21 7q-6 2-10 0l-2-1-2-1-2-2h5l-1 2 10 1 8-3 6-2 1-1 19-6h2c18-5 18-5 23-5"/><path fill="#31424D" d="M382 260q4 1 7 4l3 6-1 1-1-1q-3-6-9-9l-3 8-1 3v23h-1q-5-18 3-35z"/><path fill="#5E6576" d="M452 214v8l-7 20-1 4 2-1c16-10 16-10 24-12v1q-14 6-26 14l-3 2 2-7 1-2 1-3z"/><path fill="#C8DFE1" d="M366 223h1v4h-2q-16 3-27 15l-3 3q0-3 2-5l3-1-1-2q2-4 6-5c6-3 6-3 10-3l1-2 6-1h4z"/><path fill="#396667" d="m73 135 1 2 1-1 8 7h-3l-14-6q3-2 7-2"/><path fill="#535A70" d="M46 437v1a90 90 0 0 0 18 34l-1 2c-8-10-18-25-18-37"/><path fill="#244149" d="M158 477h4v2h3l-2 1a94 94 0 0 0-27 11l-1-1 9-4v-1l10-4 3-2 1 1z"/><path fill="#586175" d="m144 76-1 3v6a80 80 0 0 0 2 33l1 3-2-1v-2l-1-5q-5-18 0-37"/><path fill="#56606F" d="m446 169 4 15v3l3-6v5l-1 1-1 2v2l-2 4h-1v-1l-1-18v-1z"/><path fill="#375861" d="m54 111 6 7 1 2 1 1-1 2-4-2 1-3h-6l3-5h-2z"/><path fill="#ADCED0" d="M211 273q1 4-2 6h-1v2l-5 4v-1l-2-1 2-1 2-2 1-1 3-4-5 1q2-4 7-3"/><path fill="#C6DDE2" d="m333 246 1 1-1 2q-3 5-4 11l-3-2 1-4h2v-2l-2 1 1-4 3-2z"/><path fill="#414F5F" d="M160 53h1l-4 6h-1l-1 2h-1l-1 1-3 5h-1l-2 2 3-6 3-4 1-1h2v-1z"/><path fill="#D2E3E6" d="m94 223 2 3h4l-1 3-2 1-5-3-2-1-2-2h3v-1z"/><path fill="#E5F3F5" d="M242 204q9 3 14 10l-3-1-4-1q-1-2-3-2l-2-5h-2z"/><path fill="#D5E3E4" d="m131 237 12 4v1l-3 2-2-2h-4v-3z"/><path fill="#5D6573" d="m353 450-1 1-7 3-2 1-14 7-2 1-1-1 10-6 14-6z"/><path fill="#263D48" d="M310 400q8 0 14 3l2 3 7-2q-3 3-8 4h-1l-1-2q-2-4-7-4z"/><path fill="#465261" d="M360 177q8 4 14 10l-1 2-1-1c-3-4-3-4-8-6l-1 2-3-1 2-1z"/><path fill="#283847" d="m222 380 22 4v1l-14-2-2-1h-2z"/><path fill="#E5F2F4" d="m222 190 14 9-4 1v-2l-3 1-1-4-5-1z"/><path fill="#D8E9F0" d="m64 184 6 2q0 3-3 5l-1 3z"/><path fill="#305157" d="m364 353 2 1-2 1-3 3-8 3 3-5 5-1 2-1z"/><path fill="#314454" d="m419 341 2 1-2 3h-2l-3 2-4 3-2 1-1 1h-1l2-3 1-1q4-4 9-5z"/><path fill="#3A5C61" d="m203 276-1 3h1v2h-2l-6-1h-3l-2-1 6-2h3l2-1z"/><path fill="#DBF0ED" d="M336 190q9 0 17 5h-7l-3-2v-1h-2q-2 1-5-1z"/><path fill="#384451" d="M432 146q5 3 8 8l1 4-4-1-1-2v-2l-4-5z"/><path fill="#375862" d="M151 144h4v6l-7-4h2z"/><path fill="#315460" d="M91 500h1v1h2v-1 2h2l3 2 2-2-1 5h-3v-2l-3-1-3-3z"/><path fill="#3C4A59" d="m63 428-4 2-2 1-1 2-4 2-4 2h-1l2-4 7-3 2-1z"/><path fill="#4B5A65" d="m408 311 2 1-3 3-1 1-1 1-6 5 3-5-1 1 1-5h2v-1l1 3z"/><path fill="#334756" d="M165 43q1 6-2 11h-1v1l-4 1 2-2 1-2 2-1v-7h2z"/><path fill="#395B64" d="M119 124h3l2 1h4v4l-2-2-1 3z"/><path fill="#405F5F" d="m132 241 9 1q-1 3-3 2l-2 1h-2l-2 1-1-3z"/><path fill="#ECF4F5" d="M280 223v4l1 2-1 2-8-1v-2h1l3 2z"/><path fill="#EBF3F6" d="M304 201v2l-5 4v1l-1 1-2 1-1-2 4-4 1-1z"/><path fill="#4C5966" d="M319 465h2l-8 4-2 1-2 1-2 1h-4l6-2 1-3z"/><path fill="#243B4B" d="M256 388q6 0 11 2v1l6 2-6-1h-2l-2-1-2-1z"/><path fill="#DFEEF1" d="m130 134 9 5h-7l-2-1 1-1-3-1z"/><path fill="#355B62" d="m73 134 2 1-1 3-2-2h-1q-7 2-8-1l-1-1z"/><path fill="#253844" d="m103 85 9 8v1l2 1 4 4-4-2v-2h-2l-3-3-4-4q-2-1-2-3"/><path fill="#223A48" d="M84 495q3 0 4 3l7 6 5 4-1 1-10-9-2-1-1-1-1-1z"/><path fill="#3D4E5C" d="M94 410h2l-2 3 2 1-6 1-6 2 7-5 2-1z"/><path fill="#2C3E49" d="M330 359h1l-7 5h-1q-4 3-6 1l3-1v-1z"/><path fill="#244348" d="M371 243h17l1 3z"/><path fill="#223944" d="m30 300 17 2v1z"/><path fill="#C6DCE5" d="M105 246h5l-2 1v3h2l2 4-2 2-3-6z"/><path fill="#324455" d="m135 389-1 1-1 2-3 1-1 1h-5l2-2 2-1 2-1z"/><path fill="#1A333F" d="m5 293 13 3 2 1 5 1v1l-13-3H5z"/><path fill="#E2ECED" d="M313 194h2l-3 4 1 1-3-1-1 2-3-1z"/><path fill="#365962" d="m189 165-2 2 2 1v2l-7-4q3-2 7-1"/><path fill="#283C46" d="M263 137q5 3 6 8l2 1v3h-3v-2l-4-7z"/><path fill="#DDECEE" d="M63 70q6 3 8 9l-1 1-2-3h-2v-1h-1v-2l-1-2-1-1z"/><path fill="#3C5A62" d="m286 433 1 1q-1 3-5 5v1l-5-1z"/><path fill="#243A46" d="m377 296 1 1h1l1 4v1l2 1v3l2 3 1 1v1q-5-5-8-12z"/><path fill="#EEF9F9" d="M211 273v5l-1 4v5l-2 1-1 2q-1-3 1-6z"/><path fill="#395155" d="M280 221h2l-3 6-2 1-1 2-1-2 1-2 1-2 2-2z"/><path fill="#3D4753" d="M415 200h4l3 3 2 2 1 2-1 1-5-5z"/><path fill="#33555F" d="M80 60h1l5 7h-3l-2-2v1l-2-1z"/><path fill="#213841" d="M259 479h8v1l-15 1h-8v-1h13z"/><path fill="#C8DCE1" d="m215 451 7 1 5 1h-18l2-2z"/><path fill="#21404B" d="M389 364h1v5h-2l-4 1-1 1-1-1z"/><path fill="#254349" d="M88 374q-3 3-7 3l-2 1h-3v-2h6v-1z"/><path fill="#3E5C60" d="m195 288-8 7h-2v-2h2v-1h2v-4z"/><path fill="#3B4755" d="m385 221 2 5h1l2 3 1 3 1 1-1 2-1-4h-2l-1-3-1-2z"/><path fill="#ECF5F3" d="M263 221q4 0 5 3l1 1 1 1-1 1-1-1h-4l1-3h-2z"/><path fill="#4A6868" d="M95 192h-7l-2-1h-3q7-4 12 1"/><path fill="#DEECEE" d="m233 445-2 2h-6v2h-1l-1-2 3-1 2-1z"/><path fill="#2A4851" d="M120 283v2l3 3q-4 0-8-3l1-2z"/><path fill="#E5F4F6" d="m145 144 3 2 3 1 3 3-1 1q-2 0-5-3l-2-1-1-1z"/><path fill="#2E4551" d="M497 138q-4 4-7 3v2l-5 1q4-6 12-6"/><path fill="#C5DEE3" d="m53 57 4 3 1 2h-2l-1-2-5 1z"/><path fill="#455363" d="m348 364 2 1-7 4-2 1-1 1h-3q4-4 10-6z"/><path fill="#2B3A44" d="m381 260 9 5 2 5-1 1z"/><path fill="#E1F1F1" d="m169 159 9 5h-5l-3-2z"/><path fill="#28484D" d="m401 313 1 3h2l-4 5-2 2-1 1 2-4 1-1-1-2h1z"/><path fill="#C7DEE3" d="m125 238 2 1h3l-2 1h-6l-3-1v-2q2-1 6 1"/><path fill="#E0EEEF" d="M330 190q-2 2-6 2h-3l-1 2v-1l-2-1q5-2 12-2"/><path fill="#567978" d="m77 138 3 2 1 1 2 3-5-1-3-2z"/><path fill="#456B6D" d="m75 136 2 2v2l-3 1-4-2h4z"/><path fill="#2F3F4D" d="m346 352-4 2-2 1-2 1-1-1 2-2 2-1q3-3 5-1"/><path fill="#293A45" d="m359 341 1 1-2 2h-1v1l-4 3-2 1h-3l2-1 3-3 5-3z"/><path fill="#223D45" d="m459 311 2 2q-8 3-16 2l8-2z"/><path fill="#406163" d="M80 187h2l1 3-8-2q1-3 5-1"/><path fill="#263E46" d="m484 144 1 1-2 2-1 1-1 3-5 1z"/><path fill="#233C46" d="M24 97q4 3 3 9 0 4-3 7l1-4V99z"/><path fill="#36565F" d="M260 447v3h-9l-2-1 4-1 1-1z"/><path fill="#BFDFE1" d="M208 278v3l-3 2-2 2v-1l-2-1 3-2 1-2z"/><path fill="#C4DEE3" d="M326 265q1 2-1 5v2l-1 2h-1q-1-4 1-7z"/><path fill="#36585F" d="M353 192v4l-7-4q4-2 7 0"/><path fill="#EAF4F3" d="m110 117 3 3 3 3h-5 1v-1l-2-1z"/><path fill="#5E6E7F" d="M398 288v8c1 6 1 6-2 9v-5l1-6v-6"/><path fill="#505F6C" d="m143 103 1 2 3 16-2-1-1-2-1-6z"/><path fill="#253943" d="M417 273v1l-2 5v1l-5 7v-4l5-7 1-2z"/><path fill="#325860" d="M352 231h1v4h-5v-3z"/><path fill="#3B5C62" d="M340 207v1l-3 2-2 1-3 1 1-3q3-2 7-2"/><path fill="#385C62" d="m166 154 4 1-1 2h1v2l-7-3z"/><path fill="#253640" d="M380 323q0 4-3 6l-6 4-1-1z"/><path fill="#28464F" d="M439 288h5l2 4h-4v-2h-4 1z"/><path fill="#566576" d="m437 217-2 12-2 1v-6h2z"/><path fill="#223E48" d="m61 466 8 10-1 1c-7-9-7-9-7-11"/><path fill="#203B46" d="m103 405 2 1-1 3h-2q-4 0-6 3l-2-1 4-2 2-1z"/><path fill="#3B4B59" d="M351 346h2l-2 2-2 3v2l-4-3z"/><path fill="#C8E0E3" d="M282 329h4l1 1-6 3-1-2h2z"/><path fill="#3F6268" d="m52 55 3 1v2h-2l-3 4v-2h-2l2-2z"/><path fill="#253E4A" d="m58 28 6 8-1 1-3-2v-3h-1z"/><path fill="#465A66" d="m423 313 6 1-1 2-11-1v-1z"/><path fill="#243944" d="m236 97 5 6 1 2 1 2-1 1-4-7-2-2z"/><path fill="#3B5358" d="m302 472 1 1q-3 2-7 1l-1-2z"/><path fill="#647583" d="m429 293-5 2-1 1-4 2-2-1 2-3 1 1h2l1-1 2-1z"/><path fill="#E4F3F4" d="M236 200q4 1 6 4h-4v-1h-2zl-1-1z"/><path fill="#E5F4F6" d="m214 185 5 3-1 1h-4l-1-4z"/><path fill="#375A64" d="m43 138 1 6h-3l-1 2 1-5z"/><path fill="#DEEFF1" d="m72 81 7 6-3 1-3-5z"/><path fill="#2C424F" d="M41 35q1 4-2 6l-4 3q1-4 5-7z"/><path fill="#223945" d="m188 7-2 1-7 7-2-1z"/><path fill="#2F424B" d="m374 436 1 1q-1 3-5 4h-3z"/><path fill="#274248" d="M136 360h4l3 1h2v1h-11z"/><path fill="#34555E" d="m453 337 5 4-1 1-3 1z"/><path fill="#2A454D" d="m489 177 1 1 2-1-4 7-1-2z"/><path fill="#3D626A" d="m60 129 1 1 1 3-1 1-5-3z"/><path fill="#3B6069" d="m44 119 5 4-1 2-4-5z"/><path fill="#C9DFE5" d="m48 94 2 3h-1v5l-3-7h2z"/><path fill="#547178" d="m44 80 1 13h-2z"/><path fill="#404F61" d="M147 69v5l1 3-3-1 1-4z"/><path fill="#455364" d="m35 42-1 2-2 4v2h-3l5-9"/><path fill="#495166" d="m52 379 2 1-1 2 7 2q-6 1-11-4h3z"/><path fill="#28404B" d="M386 317v3l-4 3-1-1z"/><path fill="#DAE8EA" d="M347 214v5l-2 4-2-2q3-3 3-7"/><path fill="#263E47" d="m90 71 7 6-1 1-2-1h-2v-2l1 1v-2h-1z"/><path fill="#314351" d="M31 50q1 2-1 6l-1 1-1 2 1-6v-1z"/><path fill="#2F4150" d="M379 371h3l-7 6-1-1z"/><path fill="#CADEE2" d="m195 288 1 2-2 3h-2l-1 1-1-2z"/><path fill="#C9E3EA" d="M330 252v5l-1 1v2l-3-2 1-4 2-1z"/><path fill="#34565D" d="m289 206 5 1v2l-1-1v-1l-2 1v3l-3 1z"/><path fill="#EAF6F6" d="m343 192 9 2 1 2c-7-1-7-1-10-3z"/><path fill="#2E5556" d="m79 185 3 1 1 1v-2h1l1 2-2 2 2 1h-2l-1-2-4-1z"/><path fill="#415260" d="m302 177 2 1-1 1-3 3h-4z"/><path fill="#2C464D" d="M471 156v3l-1 2h-1l-1 1-2 1 3-5z"/><path fill="#36565C" d="M267 431v2h3l-8 2v-1h2v-1h2z"/><path fill="#465267" d="m164 380-6 2v1h-6z"/><path fill="#2B414A" d="m456 359-1 4-2 2-2 1h-1q0-2 2-3l1-1 1-2z"/><path fill="#355760" d="M323 315h2q0 4-3 7l-1-1 1-2z"/><path fill="#294249" d="m408 308 1 2 1 1h-2l-1 1-3 3v-3l2-3h2z"/><path fill="#365761" d="M415 292h4l-1 5h-2z"/><path fill="#233C49" d="m90 258 3 1-1 3h2l-1 3-3-5z"/><path fill="#465666" d="m85 241 2 1-1 2-1 4h-1l-1-6h2z"/><path fill="#E2ECEE" d="M294 208v2l-1 2v4l-3-2z"/><path fill="#425C61" d="m343 209 3 1 1 4h-3z"/><path fill="#3D5D65" d="m64 170 4 3-5 2v-4h1z"/><path fill="#DDEFF1" d="m154 150 7 4-8-2z"/><path fill="#E7F2F4" d="m118 124 4 3-3 2-2-1z"/><path fill="#DBECED" d="m101 109 2 2 1 1 3 3-2 1v-1h-2v-3l-2 1z"/><path fill="#3F5060" d="m336 402-6 2-2 1h-2q3-4 9-4"/><path fill="#444F5F" d="m143 386-4 1-1 2h-5l5-2 2-1z"/><path fill="#203B47" d="m304 376 3 1h1v3h3v1h-4q-3-2-3-5"/><path fill="#27444B" d="M97 371q-2 2-5 2l-2 1h-1l1-1v-2z"/><path fill="#263E46" d="m364 353 2 1-7 5-2-1 3-2 1-1z"/><path fill="#CCE1E9" d="M72 208h3l4 4-2 2-2-3-2-1z"/><path fill="#3C5C65" d="m252 210 6 2-1 3-2-2-2-1-1-1z"/><path fill="#2D4048" d="m136 114 7 3-1 2q-4-2-6-5"/><path fill="#41515C" d="m132 110 7 5h-5v-1z"/><path fill="#E8F3F2" d="m206 272 2 2h-14v-1h7z"/><path fill="#37565E" d="m124 268 6 2-1 2-5-1-1-2z"/><path fill="#3C5C66" d="m335 245 2 3-1 1-2 1-1-3z"/><path fill="#3D5D65" d="M248 203v5l-7-4h4l2 1z"/><path fill="#B7D1D9" d="m64 184 6 2h-4v5h-1z"/><path fill="#3D5F60" d="m79 182 5 3h-1v2l-2-1v-1l-2-1z"/><path fill="#365965" d="m211 180 4 2-1 2h-2l-2-2z"/><path fill="#DAEBEC" d="m89 98 5 6h-2q-4-2-3-5z"/><path fill="#263D48" d="m72 49 5 5v1l-2-1v-2h-3v-1h-1z"/><path fill="#283E47" d="m423 392 1 1-5 5-1-2 2-1v-1l1-1z"/><path fill="#293E46" d="m430 385-1 3-1 1-2 2-1 1q0-3 2-4l1-2z"/><path fill="#465664" d="M353 359h2v2l3-2-6 4v-4z"/><path fill="#375559" d="M185 293v3l-3 1h-1v-3z"/><path fill="#415F66" d="M324 274h1l-1 6-2 1z"/><path fill="#E4F2F4" d="m66 136 6 3-2 2-4-3z"/><path fill="#3B4A58" d="M251 120q5 2 4 4l1 1h-2v1h-1z"/><path fill="#223D44" d="M196 1v2l-3 2-1 1-2 1-1-1 3-2 1-2z"/><path fill="#415160" d="M152 384h-2v1h-7q5-3 9-1"/><path fill="#253C4A" d="M18 346q4 1 4 4l1 1 1 4-3-4-2-2z"/><path fill="#374755" d="M419 267v4l-1 2h-1z"/><path fill="#3C5B61" d="m345 215 2 2-2 4-1-1z"/><path fill="#3A4954" d="m374 189 3 3v2l-4-3z"/><path fill="#E2F4F3" d="m190 171 6 4v1l-3-1h-1l-2-1-1-2z"/><path fill="#263D49" d="M423 141h2l-3 5-1 1v1h-1q1-6 3-7"/><path fill="#ECF6F9" d="m60 134 4 1v2l-5-1z"/><path fill="#3A5E65" d="m128 131 6 2h-2v2z"/><path fill="#43525C" d="m123 497 2 1 1 1-5 2v-2h2z"/><path fill="#3A4453" d="M330 359h1q-2 3-5 3l-2-1 3-1 2-1z"/><path fill="#33575E" d="m291 328-1 3-3 1-2-1q3-4 6-3"/><path fill="#DCEEF2" d="m104 328 2 1-1 3h-3z"/><path fill="#263B45" d="m327 314 1 1-5 7 2-6h1z"/><path fill="#294352" d="m141 295 2 1-4 2-1 1h-4l-1-1h1l2-1 2-1z"/><path fill="#BDD7D5" d="M137 241h4l1 1-1 2-1-1-6-1q2-3 3-1"/><path fill="#2A4751" d="M79 237h3l-2 2 1 1-3-1z"/><path fill="#273B46" d="m389 231 4 7v2l-3-6-1-2z"/><path fill="#C6DDDF" d="M91 223h1l1 1v2h1l-2 1-4-3h3z"/><path fill="#38545D" d="M298 200v2l3 1-3 2h-2z"/><path fill="#20333D" d="m367 183 7 6h-2v-1h-1q-5-3-4-5"/><path fill="#365760" d="m135 134 4 3-2 2-3-3z"/><path fill="#3B5F66" d="m53 124 1 1-2 3-4-3z"/><path fill="#27404A" d="M52 26h2zl-1 2h-1v1h-1l-1 1 1-2 1-2 2-1z"/><path fill="#284049" d="M119 500h2v1l-2 2-1 1h-4l5-3z"/><path fill="#213C47" d="m73 424-1 2-3 1h-2l-1 1q3-4 7-4"/><path fill="#27414A" d="m443 371 1 1 1 1-5 4-1-2 2-1q2-1 2-3"/><path fill="#3D4557" d="m102 274 5 4-3 1-1-2h-1z"/><path fill="#36555D" d="m107 252 3 2v1l-1 1h-2z"/><path fill="#B4CED2" d="M355 230h-4z"/><path fill="#2C3B44" d="m423 207 3 1 2 6z"/><path fill="#27454D" d="m437 154 3 1 1 3-2-1-2 1z"/><path fill="#DFF0F1" d="m59 65 3 2 1 2-1-1-3 1z"/><path fill="#C0DBDF" d="M49 63h1v4l-3 1z"/><path fill="#E1EDEE" d="M228 451h3l2 2h-6z"/><path fill="#273C48" d="M344 396h2l-5 4h-1z"/><path fill="#29404C" d="m8 328 2 1 1 3-1 2z"/><path fill="#C6E0E6" d="M113 324h-1v2l-6-1v-1z"/><path fill="#3B5B60" d="m179 299-5 3v-3z"/><path fill="#496469" d="M199 278h-2v1h-7l5-1z"/><path fill="#3D5C66" d="M329 258v6l-2-1z"/><path fill="#E9F3F6" d="m332 221 5 2-1 1-3 1z"/><path fill="#223A46" d="M452 212v5l-2 4 1-7z"/><path fill="#395860" d="m70 205 3 3-1 2-2-1-1-2z"/><path fill="#D9EDEF" d="m242 204 5 3v1l-2-1-1-2h-2z"/><path fill="#ECF5F5" d="M313 194h2l-3 4 1 1h-2q0-3 2-5"/><path fill="#263E48" d="M426 187h2l1 2 1 2v2l-2-2-1-2z"/><path fill="#425E68" d="M216 186h5l1 3h-2z"/><path fill="#CDE1E4" d="m46 123 3 3-1 2-2-1z"/><path fill="#28434E" d="m97 79 4 2v2l-2-1-2-1-1 1z"/><path fill="#365B63" d="m46 62 3 1-1 4-2-1z"/><path fill="#E0F0F2" d="M245 441v3l-5-1q2-3 5-2"/><path fill="#315563" d="m86 417 3 2h-6z"/><path fill="#384853" d="m361 358-5 2-1 1h-2l2-2q5-3 6-1"/><path fill="#2F4853" d="M47 302h4v2l3 1h-4z"/><path fill="#284248" d="m481 298 3 1v1q-1 2-3 2h-1z"/><path fill="#E3EBEB" d="m286 217 2 4h-2l-1 1v-2l-1-1z"/><path fill="#DDF0F2" d="m259 216 4 3-1 2-4-4z"/><path fill="#D7E4E7" d="m353 196 5 4-1 1-4-4z"/><path fill="#3C505C" d="m478 190 1 1v3l-2 1z"/><path fill="#D3E7E6" d="m327 190-2 2-3-1z"/><path fill="#C3DADE" d="M65 125h3v2h2l-2 2z"/><path fill="#223B46" d="m118 99 4 3h-4l-1-1z"/><path fill="#2C3E4B" d="M130 393h-6l1-1z"/><path fill="#344453" d="M453 336q5 1 5 3l1 1q-4 0-6-3z"/><path fill="#3F6167" d="m280 334-1 4-4-1q3-4 5-3"/><path fill="#D6EDF2" d="m123 334 3 1h-3l-3-1z"/><path fill="#3B5E64" d="M296 322h1q-1 3-3 2h-2z"/><path fill="#293D44" d="M401 318q0 4-4 6l2-4z"/><path fill="#253F45" d="m475 305 2 1-3 1-2 1z"/><path fill="#CBDDE0" d="m309 304 2 1-2 3h-2z"/><path fill="#416169" d="m318 291 1 2 1 2-4 2z"/><path fill="#29414E" d="m105 276 4 1 1 3v1l-5-4z"/><path fill="#BED8DA" d="m210 274-6 2q2-3 6-2"/><path fill="#DFF1F3" d="m129 246-1 2h-5q2-3 6-2"/><path fill="#33575F" d="M504 237h4l-1 2h-2v1z"/><path fill="#E0EEF0" d="m266 222 4 3-1 2-3-3z"/><path fill="#E6F0F1" d="m343 223 2 2-2 1-3-3z"/><path fill="#E4F5F4" d="m72 140 6 2v1l-6-1z"/><path fill="#243A42" d="M258 129q3 2 3 5-2 1-3-2z"/><path fill="#C7DBDF" d="M61 120h2v2h3l-1 2z"/><path fill="#D0E2E4" d="m110 117 3 3-2 2-1-1z"/><path fill="#36565E" d="M97 104h3l1 4h-2z"/><path fill="#D4E7E8" d="m255 438 1 1-1 1h-4z"/><path fill="#375662" d="m49 435 1 1v4h-2z"/><path fill="#E0EDF2" d="m280 437-3 2h-2v-2z"/><path fill="#DEEFF4" d="M288 428h2v3l-2 1z"/><path fill="#44505F" d="M388 426v1h-1v1l-3 2 1-4z"/><path fill="#536F76" d="M289 426h2v4l-1 1v-3h-3l2-1z"/><path fill="#223A4A" d="m30 361 5 5-5-4z"/><path fill="#2B434D" d="m426 339-3 2h-2l1-2z"/><path fill="#23434C" d="m446 334 7 2h-7z"/><path fill="#375A5F" d="m388 328 3 1-1 2-2 1z"/><path fill="#244A55" d="m302 318 1 2-1-1zm-2 1 2 1v1l2-1-1 2h-3z"/><path fill="#BBD8D8" d="m204 281 1 2-2 2v-1l-2-1z"/><path fill="#EAF7FA" d="M177 269v2l-5-1q2-3 5-1"/><path fill="#243D43" d="M490 253h2l-4 3h-2l3-2v-1z"/><path fill="#3A535C" d="m500 244 1 1 1 1-2 1v-1l-2-1z"/><path fill="#324755" d="M85 244h2v4h-2z"/><path fill="#596F79" d="M276 226h2l-2 4-1-2z"/><path fill="#E6EFF1" d="m344 207 2 1v1l2 1h-2v1z"/><path fill="#273F45" d="m460 206-5 2h-2q3-3 7-2"/><path fill="#38585E" d="m52 157 2 2-1 2-2-1z"/></svg>