<svg xmlns="http://www.w3.org/2000/svg" width="1000" height="256" fill="none"><path fill="#2A505B" d="M295 158v1l-1-1-1-1h-6v-1l-2-1v1l-1-2h-1l-2-2-2-1v-1h-1l-1-1-2-2-1-3-1-1h-1l-2-1-1-1v-1h-1v-1l-1-1 1-3 1-1 1 1-1 1v1l1 1 1 1h1v1h2l-1-1v-3l1-2v-1l1-1 1-1v1l-1 1-1 4v3l1 1q0 1 0 0l1 1 1-1v1h2v1h3v1h2v-1l2 1h21l2-1h2l-2 1h-2l-3 1h-3l-2 1h-4l-1-1-1 1h-1q0-1 0 0h-4l-3-1h-4l-5-1 1 1 1 2 2 1v1l1 1h2l1 1 1 1h3l1 1v1q1 0 0 0v1h1l1-1h5v1l1-1 1 1v-1h4l1-1 1 1v1-1h1l1-1h2l2-1h3l1-1 2-1h1v-1l1-1 1 1 1-1 1-2h1l1-1v1h1v-2h1l1-1 1-1v-1l2-1v-2l1-3-1-2-2-3h-1l-3-2-2-1h-1l-3-1-2-1h-4l-1-1h-2l-2-1h-2l-3-2h-2l-8-4-1-4v-3l1-1v-2l1-1 1-1h1v-1l1-1 4-3 5-3h1l9-2 10-2h1l1-1h1l2 1v-1l2 1h5l1 1 1 1 2 1 1 2v3l-1 3-2 3-2 1-2 1-2 1-3-1 1-1h1l1-1 1-1h1v-1l2-1 2-3v-5l-4-2h-11l-2 1h-1l-2 1-1-1-1 1h-1l-1 1h-1l-7 3-6 5-1 1v1h-1l-1 3-1 2 1 2 1 1 1 1v1l2 1 2 2h2l2 1h1l1 1h2l4 2h2l1 1h2l2 1h1l1 1h2l1 1 1 1v-1l1 1 2 3 2 5-1 4-1 3-4 4-4 4h-2l-4 2-4 2h-2l-1 1h-1l-1 1h-6l-1 1-1-1-1 1-1-1h-1zm10 25-6-2h-1l-1-1h-1l-1-1-1-1h1l1 1h1l3 1h1l2 1 7-2 5-3 4-4 2-3h1v-2h1v-2l5-6 1-2 2-3 2-3 1-1v-2l1-2v-3l2-1v-3l1-1v-1h1v-3h1v-2l1-1 1-2v-1l1-1v-1l1-1 1-2v-1l1-1 2-2 1-1 1-2-2 1h-7v1h-1l-2 1-1-1 1-1h2l4-1 1-1h2l2-2h2l1-1v-1h1l1-2 2-1h2l1 1h1l-1 2v2h-2l-1 1-1 1h-2l-1 1-1 2-1 2v1l-1 1-1 3h-1v1h-1 1l-1 1-1 1v1l-1 2-1 2v2l18-16 1-1 2-1 1-1h4l1 1 1 1v6l-1 3v2l-2 1h1l-1 1v1l-1 2v1l-1 1h-1v1l-1 1-9 8q-6 4-12 5h-1l-3-1-2-2v2l-1 1v2l-1 2-1-1v4l-1 1h-1v2l-1 1v2l-1 1h-1l-1 3-1 1h-1v1l-1 3-3 2v1l-1 1-1 1h-2v2l-6 2zm38-34 7-2 1-1 1-1 1-1 1-1 1-1 1-1 1-1 1-1v-1l1-1 1-2h1v-1l1-1 1-3 1-1v-1l1-3v-5h1-1l-1 1h-3l-2 1-3 2v1h-2v2h-1v1l-5 5-5 5 17-7h2v1h-2l-1 1h-1l-17 10-1 3v2l2 1zm47-37h-1l-1-1-1-1 1-2h1l1-1 2-1h4l2-1v1h-1l-1 1v1l-4 4zm-18 37v-2l2-6 3-6 5-10v-1l-2-1v-3h1v-1q0-2 3-2l5-1h2l-1 1-1 1-2 2-1 2v1l-7 13 1 1 2-1h1l6-5 1 1-7 5v1l-1 1-1 1h-1v2h-1v1h-1v2h-2l1 1h-1v1h-1v1h-1zm24 0-2-1-1-1 1-2 1-2 2-3v-1h1v-2l1-2v1h1v-2l1-1h-1l3-8v-1h-1v-1l-4 3-1-1 1-1h1v-1h1v-1l1-1v-1h1v-1q0-2 3-2l5-1h2l-1 1-1 1-2 2-1 2-1 1-5 16 5-6 6-7 1-1h1q0 1 0 0v-1l1-1 8-5h4l1 1 1 1-2 3-3 2-2 2v3h3l3-1h1l-1 1-1 1h-8l-1-2v-1l1-1-1-1 1-3-3 2-4 4-6 7-1 1h-1 1zm50-37-1-1h-1v-1l1-2h1l1-1 1-1h4l2-1v1l-1 1-1 1-3 4zm-18 37v-2l3-6 3-6 5-10-1-1-1-1-1-2 1-1 1-1q0-2 3-2l4-1h2v1l-2 1-1 2-1 2-1 1-6 13 1 1 1-1h2l6-5v1q1 0 0 0l-6 5-1 1-1 1v1h-1v2h-1l-1 1v1l-1 1h-1v1l-1 1-1 1zm24 0 1-2 2-6 3-6 6-12h-1l-1 1-1 1h-2l-3 1-3 3-2 3-2 1-1 1-1 1v-1l2-1 2-3q0 2 0 0l3-4v-4h4v-1l1-1 1-2 1-2h1l1-1v-1l1-1v-1h1v-1h1v-1l1-1v-2h1v-1h1l2-2 5-1h2l-1 1-1 1-1 2-1 2-1 1-5 9h15l1 1h-9l-1 1-8 2-5 14 2-1h1l6-5 1 1h-1l-6 5v1h-1v1l-1 1h-1v2h-1v1h-1v1l-1 1h-1v1q1 0 0 0v1h-1l-1 1zm7-28h2l3-1 4-9-1-1-1 1-2 2-1 1-1 1v1l-1 1v1l-1 1v1h-1zm20 11h-2v-2l1-1h6l1-1h2l1 1 2-1 1 1q1 0 0 0v1l1-1h8l2-1v1h1l-1 1h-4l-1 1h-3q2 0 0 0h-1l-1 1h-1v-1l-1 1zm50 26h-3l-3-1-2-2-2-1-2-1-1-1-5-7v-2l-1-1-1-2v-1l-1-3v-2h-1l1-1v-1l-1-1 1-3h3l2 1v2l1 2v1l7 7v1h1l1 1 1 1h2l1 1v1h3l6 3h2l2-2 2-2h1v-2l1-2 1-1 2-4 1-3h1l1-1v-2l2-4v-1l1-1v-1l1-2v-3l3-8 1-4 1-1 1-3v-2h-1v-3l2-3 1-3 2-2 3-1h2l1 1 1 1v2l-1 3q-2 0-2 3v3l-1 1v5l1 2v1h-1l-1-1v-2l-1-2v-2l-1-2v-1l-2 3v1l-1 2-2 6-2 6-1 2v1l-3 6v2l-1 2v1l-10 18 6 2h8l6 1h12l3-1 1-2v-1l-1-1-1-1-1-1 1-1h1v1l1 1 1 1h1l1 4-2 4-4 1h-7l-6-1-2-1h-4l-2-1h-5l-2-1-3-1h-3l-6 4zm-1-2 5-2 4-3-5-2-2-1h-2l-1-1h-1l-1-1h-2l-1-1h-2v-1l-2-1h-1v-1h-2l-2-2-1-2 5 12h1l1 2 2 1 1 1 1 1h3zm62-7-5-1q-3-2-3-6l1-3 1-4v-3h1l1-2 1-1v-1h2v-1h-1l1-1 1-1 1-1 2-3 1-1h2v-2l1-1 2-1 2 1 4 2 2 3-2 4-5 3-9 3h-1v2l-1 1-1 2v1l-1 1h1v3q0-1 0 0v2l3 2h4l4-2 2-1 3-2 1-1h1v-1h1v-1l1-1 3-3 2-2v1l-1 1-10 11-6 3zm2-19 4-1 5-3q3-1 2-3 1-3-2-4l-3 3zm34 27-1-2 1-1v-2l1-3 1-4 7-15-4 5-10 11-5 2-5-1-2-5 1-5 1-1h1l-1-1v-1l1-1h1v-2h1v-1l1-1h1v-1l1-1v-1h1v-1h1q1 0 0 0v-1h1l6-5h1v-1h1l6-2 4 1 2 1v-2h2v-3h1l1-4 1-1 2-3v-1l1-1v-1l5-6v-1l1-1 2-1 2-2v-1a35 35 0 0 1 16-8h5l1 1h1l1 1q0 2 0 0h-8l-8 4-5 5-5 6v2l-1 2-1-1v2l-1 1-1 1v1l-3 3-3 5-13 24 1 1h1l1-1h2l1-1 2-2 1-1h1l1-1v-1l1 1v1h-1l-1 1-4 4h-1l-1 1-1 2h-1v1l-1 1v1h-1v1l-1 3h-1v1-1l-1 1v2l-1 1-1 1zm-12-11 7-4v-1h1l1-1 1-1 1-1 1-1q2 0 0 0v-1l1-1 1-1 1-1 5-8 1-1 1-4h-2a15 15 0 0 0-10 5h-1l-1 1v1h-1v1h-1v1l-3 2-1 2-1 1v1l-1 1v1l-2 4v3zm88 12-1 1v-1l-1-1h-6v-1l-2-1v1l-2-2h-1l-1-2-2-1-1-1-1-1-2-2-1-3-2-1h-1l-1-1-1-1-1-1-1-1v-4l2-1v4h1v1h1l1 1h1v-6l1-1 1-1 1-1v1h-1v1l-1 4v4h1v1l1-1 1 1h1l1 1h2l1 1h1l1-1 1 1h22l1-1h2q0-1 0 0l-1 1h-2l-3 1h-4l-1 1h-4l-2-1-1 1h-4l-3-1h-4l-5-1v1l2 2 1 1 1 1 1 1h1l2 1v1h4v1l1 1h-1v1h2v-1h5l1 1v-1h1v1l1-1h4l1-1v2l1-1 1-1h3l2-1h2l2-1 2-1h1v-1l1-1v1l2-1 1-2h1l1-1v1h1v-2h1v-1h1l1-1v-1l1-1 1-2v-5l-3-3-3-2-3-1-3-1-3-1h-3q0-1 0 0l-1-1h-2l-3-1h-2l-3-2h-2l-7-4-2-4 1-3v-1l1-2 1-1v-1h1l1-1 1-1 3-3 6-3 9-2 10-2h2l1-1h1l1 1 1-1 1 1h6v1h1l1 1 2 1 1 2v3l-1 3-2 3-2 1-2 1-3 1-2-1 1-1h1l1-1v-1h1l1-1 1-1 2-3 1-1v-4l-4-2h-11l-3 1-3 1v-1l-1 1h-1l-2 1-7 3-6 5-1 1-1 1-1 3-1 2 1 2v1l1 1 1 1 2 1 2 2h2l2 1h1l1 1h1l4 2h3v1h3l1 1h1l1 1h2l2 1v1l1-1v1l3 3 1 5v4l-1 3-4 4-5 4h-1l-4 2-5 2h-1l-1 1h-2l-1 1h-5l-1 1-1-1-1 1-1-1h-1zm48-8-5-1-2-6v-3l5-11 1 1v-1l1-1-1-1 1-1 1-1 1-2 1-1h1v-1h-1v-1h-1v-1h3l1 1 1-1 1-1 1-1v-1h1v-1h1l3-2h3v3l-2 1-1 1h-1v1h-1l1 1h3v-1l1-1 3 1h4v-1h3v-1h1v2h-3l-1 1h-3v2l1 2v2h-1 1v2l-1 3v1l-1 1v2l-1 1-1 1-3 5-5 4zm1-2h1l2-1h2v-1h1v-1h1l3-4 4-5h1v-2l1-1 1-4v-1h1v-1q-1 0 0 0l-1-1 1-1-1-2-1-2h-3l-1 1v-1 1l-1-1v1h-1l-4 4-7 9-1 3-1 1v5l1 3zm23 8v-1l11-24v-2l1-1 1-2v-2l-1 1-1 1h-2l-4 1h-1v-2l1-2h2l3-1h2l3-1v-1l1-1 1-1 1-1v-2l1-1 1-2 1-1 1-1 2-4 1-1v-2l3-3 2-2 1-2 1-1 2-1 1-1 1-1v-1l6-4 6-2 4-1h5l1 1h2v1h-8l-8 3-5 6-17 21-3 4h14l1 1h-9v1l-8 1-6 11-1 3-1 2-1 1 2 1h1l1-1h1l1-1 3-2 1-1 1-1h2l-1 1v1l-2 1-6 4-2 2-1 1v1l-1 1h-1v1l-1 3-1 1v-1 2l-1 1-1 1-1 1zm31-7h-1v-2l2-6 4-6 6-12h-2v1l-2 1h-1l-4 1-2 3-2 3-2 1-2 1-1 1v-1l2-1 3-3q0 2 0 0l3-4-1-2 1-2h3l1-1 1-1 1-2 1-2 1-1 1-1 1-1v-1l1-1 1-1v-1h1v-2l1-1q0-2 3-2l5-1h2l-1 1-1 1-2 2-1 2v1l-6 9h15l1 1q0 1 0 0h-8q1 0 0 0l-1 1-8 2-5 14 1-1h1l6-5h1v1l-7 5v1l-1 1v1h-1l-1 1v1l-1 1-1 1v1h-1v1l-1 1-1 1h-1zm6-28h2l4-1 4-9h-1l-1-1-1 1-1 2h-1v1l-1 1v1l-1 1v1l-1 1-1 1zm45 29-4-1-2-2v-1q1 0 0 0l-1-2v-1l1-1q1 0 0 0l-1-1 1-6 1-6 1-2 2-1-1-1-1 1h-1l2-2 3-4 3-2h2l2 1-1 2-3 3-3 7-2 7h-1v1q1 0 0 0v2h1l1 5 2 2h2l7-4 5-8 4-15-1-5-3-2v-1h2l3 1 2 3 1 3v3l-1 2h1-1v3h-2v1h1v2l-1 1v1l-1 1-1 2-1 1v1l-7 8-7 4zm-24-1-2-2v-4h1v-1l2-5v-3h1v-3l1-1v-1l1 1v-2 1h1v-1h-1l-1-1 1-1h-1v-1l1-1-1-2-2-1h-1l-4 2h-1v-1l2-1 3-1 1-1h3q3 0 4 2l1 5-1 1v2l-1 5-3 6-1 1v-1h-1l1 1h2l4-4 1-1v-1l1-1 1-1 1-1v-1h1v-1h1v-1l1-1h1l1-1-1 2-1 1-1 1-1 1-6 8-1 1-1 1h-1v2l-1 1-1 2-1 1zm69 0v-2l2-6 4-6 4-10v-1l-2-1v-3h1-3l-2 1-4 1 1-1h-1l-1 1v1l-1 1h-1l-1 1h-1l-1 1-1 1-5 5-5 7-1 5 1 2h1l3-2h1v-1h1l1-1h1v-1l4-3 3-4 2-1 1-2 1-1 1-2 2-1 1-1v2l-4 5-4 4-9 9-4 2-4-1q-2-1-2-5v-2l1-3h1v-2l2-2 1-2h1v-3h1v-1h1v-1h1-1l2-1 1-1 1-1h1v-1l6-4 5-1q3-1 6 2l3-2 5-1h2l-1 1-1 1-2 2v2l-1 1-6 13 1 1 1-1h1l6-5h1v1l-7 5-1 3h-1l-1 1v1l-1 1h-1v2h-1q-1 0 0 0v1l-1 1-1 1h-1zm21 0-2-1-1-1 1-2 1-2 1-3 1-1h1v-2l1-2v1h1v-2h-1 1v-1l3-8-1-1-1-1-3 3-1-1v-1h1l1-1 1-1v-1l1-1 1-1q0-2 3-2l4-1h2v1l-2 1-1 2-1 2-1 1-5 16 4-6 7-7 1-1h1v-1l1-1 8-5h4l1 1v1l-1 3-4 2-1 2-1 2h1v1h2l4-1v1l-1 1h-8l-1-2v-1l1-1h-1v-1l1-3-3 2-4 4-7 7v1h-1 1zm38 0-5-1q-3-2-3-6l1-3 1-4v-3h1l1-2v-1l1-1h2v-1h-1l1-1 1-1 1-1 2-3 1-1h2v-2l1-1 1-1h1l2 1 4 2 2 3-2 4-5 3-9 3h-1v2l-1 1-1 2v1l-1 1h1v3q0-1 0 0v2q0 2 3 2h4l4-2 2-1 3-2 1-1h1v-1h1v-1l1-1 3-3 2-2v1l-1 1-10 11-6 3zm2-19 4-1 5-3q3-1 2-3 1-3-2-4l-3 3z"/><path fill="#2D505B" d="m109 0 2 2v3q3 16 10 31v1l15 24 10 14v1q6 8 7 17h1q11-8 26-8 10 2 17 9l5 13 3 10q3 4 1 6h-4q-8-2-14 2-5 5-7 13-4 18-17 31h-1l-13 9a68 68 0 0 1-30 6l-21-2-11-1h-1q-23 2-45 11h-6q-9-6-16-15a44 44 0 0 1-11-27l1-3 4-1 2 1h2l1 1c18 5 40 7 58 0l2-1h-2q-7-1-15-7h-1v-2h-1q-8-6-9-15l-1-2h-1q-14-7-17-21l-1-6-1-6-3-3q-10-11-8-25l2-6q1-3-1-6-2-14 6-27c6-8 6-8 10-9q3 1 4 4l9 12 8 10 1 1 2 2h1l1 1v1l15 13 4 3v-1q-4-14 3-26l1-2 1-1h1v-1l2-1 2-3v-2a29 29 0 0 1 13-21h1z"/><path fill="#FCFDFE" d="m36 29 2 1v1l7 8v1l4 5h1l2 3 1 1 2 1 5 5 1 1 6 5 9 7 3 2 15 10 4 2 12 7a200 200 0 0 1 35 24l1 1 1 1v-1l3-3 1-1 6-6 1-1q6-7 15-8t14 4q6 6 6 15h-1a21 21 0 0 0-17 11v1l-2 6-2 7q-4 17-21 28h-1q-8 5-16 6h-1l-13 1-34-3-15-3h-1l-18-5h1l25-4h1q21-7 35-21l1-1-1 1h-3l-1 1-15 1-18-3-1-1q-9-3-14-13h2q8 1 16-2h-1q-16-1-28-12h-1q-6-7-8-15v-2l15 4-1-1-14-10-8-9v-1q-4-7-3-14v-1l4 3 11 7h1l4 2v-1L40 61q-10-11-9-24 1-5 5-8"/><path fill="#2B4F5A" d="M236 168q3 2 4 5 0 6-4 9l-1 2-2 1v1h-1l-2 2-1 1-1 1-1 1-1 1-1 2h-1l-3 3-2 2-1 1-10 10-2 1-1 1-2 1v1l-2 2-2 1-11 7h-1l-10 5q-13 8-28 11h-1q-16 2-32 0c-14-1-14-1-26 1h-1q-9 3-17 9l-2 1-10 5q-7-4-13-12l-1-1q-11-10-14-24l2-3 4-1 23-13q29-18 63-12l17 4 21 5c7 1 7 1 10 3v1l16-10h1l9-7 2-2 13-10c7-5 15-10 23-6"/><path fill="#2F505B" d="M260 68q2 6 0 11-3 12-13 19l-1 1-6 4-4 2-4 16-1 2 1-1q9-6 21-8h11l1 2q-1 5-5 8h-1a39 39 0 0 1-32 9v1l-1 2-7 12 1-1q13-6 28-3l5 2v3a32 32 0 0 1-26 9q-7 1-13-2l-15 15v1l-6 4-3 3c-19 13-19 13-27 12l-2-1-1-5 5-2a69 69 0 0 0 24-13l11-10 1-2-1-4q-6-9-3-20l2-4 3 1 2 2q6 8 5 17l10-18v-1l1-3-2-2-4-8v-1q-3-9 0-16l2-2h1l4 4h1l4 9 2-5v-3l-1-3-1-1q-9-9-8-23-1-6 2-7h4v2h1q8 8 9 20v2-1a54 54 0 0 1 14-19c8-7 8-7 12-6"/><path fill="#D6E6E9" d="M192 112v2h-1a21 21 0 0 0-17 11v1l-2 6-2 7q-4 17-21 28h-1q-8 5-16 6h-1l-13 1-34-3-15-3h-1l-8-2h-1l-6-2-3-1h1l25-4h1q21-7 35-21l1-1-1 1h-3l-1 1-15 1-18-3-1-1q-9-3-14-13h9l4 1 6 1 13 1h14l-5 6h-1v1l-3 1-3 1 19 2q1 3-1 6v2l-2 4v2h-1l-5 7-1 1-2 1-1 1-2 1v1h-1v1h-2l-4 2v1q15 2 31 1h1l6-1 2-1h2l6-3 3-1 2-1 1-1 1-1h1v-1h2v-1l2-1 4-4v-1h1v-1l2-1 2-3 2-3 1-3 1-1 1-2 2-4 1-2q2-6 7-10l2-3 8-4h1l3-1z"/><path fill="#D7E7E9" d="m30 60 4 3 6 4h-1l2 6 1 2 3 6 1 1 1 1 1 2v1h1l1 2h1l1 2h1v1h1v1h1l2 1v1h1v1l3 1 9 5 3 1-2 2q-7 3-15 2h1v2h2v2h1l1 1h1l1 2h2l4 3 9 3 3 2-2 1-1-1h-3l-1-1q-14-2-24-11h-1q-6-7-8-15v-2l15 4-1-1-14-10-8-9v-1q-4-7-3-14z"/><path fill="#D6E6E8" d="m36 29 2 1v1l1 1 1 2h-2q0 10 3 19v2h1v1l2 3 1 1 2 4 2 3 1 1 1 3h1l2 1v1h-2v-1l-3-1v-1l-1-1h-1l-7-8q-10-11-9-24 1-5 5-8"/><path fill="#F1F7F8" d="M154 214v2l-7 4h-1q-9 5-21 6h-1l-6 1h-5l2-2h1l6-2 6-2 12-3h1l9-4z"/><path fill="#305660" d="m180 104 2 1v5l-3 2-4-1-1-5q3-3 6-2"/><path fill="#D4E5E6" d="M192 112v2h-1a21 21 0 0 0-17 11v1l-2 4-1-1 1-2v-1 1q0-4 3-6l2-3 8-4h1l3-1z"/><path fill="#F2F7F6" d="m125 222-1 2h-1v1h1l1 1-7 1h-5l2-2h2l2-1h1l3-1z"/><path fill="#385A5C" d="m46 90 2 1 9 5q-5 1-11-2l2-1-1-1v-1z"/><path fill="#5E6477" d="m187 125-1 1-4 12c-3 8-6 21-14 26l2-3q9-11 11-25l3-8 1-1z"/><path fill="#D3E5E7" d="M104 137h10v3h-1l-3 3v-2l1-1 1-1 2-2-1 1h-3l-1 1h-4v-2z"/><path fill="#455C66" d="m205 117 2 4-1 2h-4q-7-2-13 1l5-2h9l-1-1h1l1-3 1 1z"/><path fill="#365A5E" d="m114 137-2 3-1 1h-1v1l-1 1h-1l-1 1-1-1 1-1v-1l1-1h-4v-1h4l1-1h2z"/><path fill="#586372" d="m70 183-4 1-1 1-12 3h-1l-10 4h-7v-1l-1-1h2v1h4l5-1 2-1h1l10-3 1-1z"/><path fill="#31424D" d="M200 130q2 0 3 2l2 3v1l-1-1q-1-3-5-5l-1 4v2l-1 3v3l1 6-1-1q-3-9 2-17z"/><path fill="#5E6576" d="M235 107v4l-3 10-1 2 1-1 12-6 1 1h-1l-13 7-1 1 1-4v-1l1-1z"/><path fill="#C8DFE1" d="M192 112v2h-1q-8 1-14 7l-1 1v-2l2-1v-1l3-2 4-2 4-1z"/><path fill="#396667" d="M46 67v1zl4 4h-2l-7-4z"/><path fill="#535A70" d="m32 218 8 17v1q-7-8-9-19"/><path fill="#244149" d="M88 239h2l1 1h-1l-13 5 4-2v-1l5-2z"/><path fill="#586175" d="M81 38v4l1 17-1-3q-3-9 0-18"/><path fill="#56606F" d="m232 85 2 7v2l2-4-1 3v2h-1v3h-1V88l-1-1z"/><path fill="#375861" d="m36 55 3 4 1 1-1 1-1-1v-1h-3l2-2h-1z"/><path fill="#ADCED0" d="M114 137v3h-1l-3 3v-2l1-1 1-1z"/><path fill="#C6DDE2" d="m175 123 1 1-3 6-1-1 1-2v-1 1-2z"/><path fill="#414F5F" d="m89 26-2 2h-1v1h-1v1l-2 2h-1v2l1-3 1-1v-1l1-1h1v-1z"/><path fill="#D2E3E6" d="m56 111 1 2h2v1l-2 1-2-1-1-1-1-1h3z"/><path fill="#E5F3F5" d="m130 102 7 5-2-1h-1l-2-1z"/><path fill="#D5E3E4" d="m74 119 7 2-2 1-1-1h-2v-1z"/><path fill="#5D6573" d="M186 225h-1l-3 2-2 1-7 3h-1l5-3 7-3z"/><path fill="#263D48" d="M164 200q4-1 7 2l1 1 3-1-3 2h-1v-1l-4-2z"/><path fill="#465261" d="m189 89 7 5h-1l-4-3-1 1-1-1h1z"/><path fill="#283847" d="m120 190 11 2 1 1-7-1-1-1h-2z"/><path fill="#E5F2F4" d="m120 95 7 4-2 1v-1l-2-1-2-1z"/><path fill="#D8E9F0" d="m41 92 3 1-2 3v1z"/><path fill="#305157" d="m191 176-3 2-3 2 1-3 2-1z"/><path fill="#314454" d="M219 171v2l-1-1-1 1-1 1-2 1-1 1h-1l1-1 1-1z"/><path fill="#3A5C61" d="m111 138-1 2h1l-1 1-4-1h-2v-1h4l1-1z"/><path fill="#DBF0ED" d="M177 95q5 0 8 3h-2l-1-1h-2v-1z"/><path fill="#384451" d="m225 73 4 4v2h-1l-1-1v-2l-2-2z"/><path fill="#375862" d="M84 72h3v3l-4-2z"/><path fill="#315460" d="M55 250v-1zl3 2h-1l-1-1h-1z"/><path fill="#3C4A59" d="m41 214-2 1h-2v1l-2 1-2 2h-1l2-2 3-2h1z"/><path fill="#4B5A65" d="m213 155 2 1zl-2 1v1l-1 1-2 2 1-2h-1l1-2h1v-1 1z"/><path fill="#334756" d="m91 21-1 6h-1v1h-2l1-1v-1l1-1 1-1v-3"/><path fill="#395B64" d="M68 62h3l2 1v1h-1v1z"/><path fill="#405F5F" d="M75 121h4l-1 1h-1l-2 1z"/><path fill="#ECF4F5" d="M149 112v2h1l-1 1h-4v-1h1l1 1v-1z"/><path fill="#EBF3F6" d="M162 99v1zm-1 1v1l-3 2v2h-1l-1-1 2-2h1z"/><path fill="#4C5966" d="m168 232 1 1-3 1-2 1h-1l-1 1h-1l2-1 1-2z"/><path fill="#243B4B" d="m137 194 6 1v1h3-4l-2-1h-1z"/><path fill="#DFEEF1" d="m74 67 5 3h-2l-1-1h-2v-1z"/><path fill="#355B62" d="M46 67v2l-1-1h-4l-1-1z"/><path fill="#253844" d="m60 42 5 4v1h1l2 2h-2v-1l-1-1-1-1-3-2z"/><path fill="#223A48" d="m51 247 2 2 4 3 2 2v1l-6-5-1-1-1-1z"/><path fill="#3D4E5C" d="m56 205-1 1 1 1-3 1h-3l3-2z"/><path fill="#2C3E49" d="m174 179-4 2h-1l-3 1 2-1z"/><path fill="#244348" d="M194 121h9l1 2z"/><path fill="#223944" d="M24 150h3l5 1v1h2z"/><path fill="#C6DCE5" d="M61 123h3-1v2h1l1 2-1 1-2-3z"/><path fill="#324455" d="M77 195h-1v1l-2 1h-3l1-1 1-1z"/><path fill="#1A333F" d="m11 147 7 1h1l2 1-6-1h-4z"/><path fill="#E2ECED" d="m166 97-1 2h-1l-1 1-1-1z"/><path fill="#365962" d="M103 83v2l-3-2z"/><path fill="#283C46" d="m141 68 3 4v1l1 1-1 1h-1v-1l-2-4z"/><path fill="#DDECEE" d="m41 35 4 4-1 1-1-2h-2v-2z"/><path fill="#3C5A62" d="m152 217-3 2v1h-3q3-3 5-3"/><path fill="#243A46" d="M198 148v2l1 1v1h1v3l-3-7z"/><path fill="#EEF9F9" d="M114 137v2l-1 2v3l-1 1v-3z"/><path fill="#395155" d="M149 110q0 2-2 3v1l-1 1-1-1 1-1v-1l1-1z"/><path fill="#3D4753" d="M217 100h1l2 2 1 1v1l-2-2z"/><path fill="#33555F" d="m49 30 2 4-2-1v-1l-1 1v-3"/><path fill="#213841" d="m139 239 2 1h2-12 6z"/><path fill="#C8DCE1" d="M116 226h7v1h-10l2-1z"/><path fill="#21404B" d="M204 182v2h-1l-2 1h-1z"/><path fill="#254349" d="m53 187-3 2h-3v-1h3v-1z"/><path fill="#3E5C60" d="m106 144-4 3v-1h1l1-2z"/><path fill="#3B4755" d="m201 110 2 3 1 2 1 1v1l-1-2h-1l-1-1v-1z"/><path fill="#ECF5F3" d="m141 110 2 2h1l-1 2v-1h-2l1-1h-1z"/><path fill="#4A6868" d="M57 96h-5z"/><path fill="#DEECEE" d="M125 222v2h-3v1h-1v-1l1-1h1z"/><path fill="#2A4851" d="m69 142 2 2-4-1v-1z"/><path fill="#E5F4F6" d="m81 72 2 1 1 1 2 1h-1l-2-1h-1l-1-1z"/><path fill="#2E4551" d="m257 69-3 1v1l-2 1q2-4 5-3"/><path fill="#C5DEE3" d="m36 29 2 1v1h-1v-1l-3 1z"/><path fill="#455363" d="m183 182-3 1-1 1h-1l-1 1v-1z"/><path fill="#2B3A44" d="M199 130q3 0 5 3l1 2v1l-1-1-4-4z"/><path fill="#E1F1F1" d="m93 80 5 2h-2l-2-1z"/><path fill="#28484D" d="m209 157 1 1h1l-2 3h-1v-1h1l-1-1h1z"/><path fill="#C7DEE3" d="M71 119h2l1 1h-4l-2-1z"/><path fill="#E0EEEF" d="m174 95-3 1h-2v1l-1-1z"/><path fill="#567978" d="m48 69 2 2h-2l-1-1-1-1z"/><path fill="#456B6D" d="m46 68 2 1-1 1h-1l-2-1h2z"/><path fill="#2F3F4D" d="m182 176-2 1-1 1h-2l2-1v-1z"/><path fill="#293A45" d="M188 171h1zv1l-1 1h-1l-1 1h-1l1-1 2-2z"/><path fill="#223D45" d="M238 156h1l-8 2 4-2z"/><path fill="#406163" d="m49 93 1 1v1l-4-1z"/><path fill="#263E46" d="m251 72-1 1-1 1-2 1z"/><path fill="#233C46" d="m21 48 2 5-2 3z"/><path fill="#36565F" d="M139 224v1h-5v-1z"/><path fill="#BFDFE1" d="M113 139v1l-2 2-1 1v-1l1-2h1z"/><path fill="#C4DEE3" d="M172 133v2l-1 1v1-4z"/><path fill="#36585F" d="M186 96v2l-4-2z"/><path fill="#EAF4F3" d="m64 59 2 1 1 1h-3 1l-1-1z"/><path fill="#5E6E7F" d="m208 144 1 3v1l-1 4z"/><path fill="#505F6C" d="M80 52v7-4z"/><path fill="#253943" d="m217 137-1 2-1 1-2 4v-2l1-2 1-2z"/><path fill="#325860" d="m185 116-1 1-2 1v-2z"/><path fill="#3B5C62" d="m179 104-2 1h-1l-1 1v-1q1-2 4-1"/><path fill="#385C62" d="m92 77 2 1-1 1h1v1l-3-2z"/><path fill="#253640" d="M199 161q0 2-2 3l-2 3-1-1z"/><path fill="#28464F" d="M229 144h2l1 2h-2v-1h-2z"/><path fill="#566576" d="m227 108-2 6v1-3z"/><path fill="#223E48" d="m39 233 4 5v1z"/><path fill="#203B46" d="M61 203v2l-1-1-3 2h-1l2-2z"/><path fill="#3B4B59" d="m185 173-1 2h1-2v-1z"/><path fill="#C8E0E3" d="m150 164 1-1 1 1-3 2-1-2h1z"/><path fill="#3F6268" d="M35 28h2l-1 1-2 2v-1h-1l1-1z"/><path fill="#253E4A" d="m38 14 3 4v1l-2-2v-1h-1z"/><path fill="#465A66" d="M220 157h4l-1 1-5-1z"/><path fill="#243944" d="M127 49q2 0 2 3l1 1h1l-1 1-2-3z"/><path fill="#3B5358" d="M160 236h-4l-1-1z"/><path fill="#647583" d="m224 146-3 2h-1l-2 1 1-2v1l1-1h1l1-1z"/><path fill="#E4F3F4" d="m127 100 3 2h-2v-1h-1z"/><path fill="#E5F4F6" d="m116 92 3 2-1 1-2-1z"/><path fill="#375A64" d="M30 69v3h-1l-1-1h1z"/><path fill="#DEEFF1" d="m45 40 3 4h-1l-1-2z"/><path fill="#2C424F" d="m30 18-1 3-2 1z"/><path fill="#223945" d="m103 3-4 4h-1z"/><path fill="#2F424B" d="m196 218-3 2-1 1z"/><path fill="#274248" d="M77 180h3l1 1h-5z"/><path fill="#34555E" d="m236 168 2 2v1h-2z"/><path fill="#2A454D" d="m253 88 1 1h1l-2 3-1-1 1-1z"/><path fill="#3D626A" d="M39 65v2h-1l-2-1z"/><path fill="#3B6069" d="m31 60 3 2h-1z"/><path fill="#C9DFE5" d="m33 47 1 1v3z"/><path fill="#547178" d="M31 40v6h-1z"/><path fill="#404F61" d="m82 35 1 2v2l-2-1z"/><path fill="#455364" d="m27 21-1 1v2l-1 1h-1z"/><path fill="#495166" d="m35 190 3 1-5-2z"/><path fill="#28404B" d="M202 159v1l-2 1h-1z"/><path fill="#DAE8EA" d="M183 107v2l-1 3-2-1 1-1z"/><path fill="#263E47" d="m54 36 3 2v1l-1-1h-1v-1l1 1v-1h-1z"/><path fill="#314351" d="m25 25-1 3v1h-1v-2l1-1z"/><path fill="#2F4150" d="m198 185 2 1-3 2h-1z"/><path fill="#CADEE2" d="m106 144 1 1-1 1h-1l-1 1v-1z"/><path fill="#C9E3EA" d="M174 126v3l-1 1-1-1 1-2z"/><path fill="#34565D" d="M153 103h3v2l-1-1h-1v2h-1z"/><path fill="#EAF6F6" d="m180 96 5 1v1z"/><path fill="#2E5556" d="M49 92h1v2h-1v-1h-2z"/><path fill="#415260" d="m160 89-1 2h-2z"/><path fill="#2C464D" d="M245 78v2h-2v1l-1 1q0-2 2-3z"/><path fill="#36565C" d="M142 216h2l-4 2v-2z"/><path fill="#465267" d="m91 190-3 1h-3z"/><path fill="#2B414A" d="M237 180v2h-2v1h-1l1-1 1-1v-1z"/><path fill="#355760" d="m171 157-2 3-1-1 1-1z"/><path fill="#294249" d="m213 154 1 1h-1v1l-2 2v-2h2z"/><path fill="#365761" d="M217 146h2l-1 3-1-1z"/><path fill="#233C49" d="m54 129 1 2h1v1l-1-1-1-1z"/><path fill="#465666" d="M51 121h1v1l-1 2z"/><path fill="#E2ECEE" d="M156 104v1l-1 1v2l-1-1z"/><path fill="#425C61" d="M180 105h2l1 2h-2z"/><path fill="#3D5D65" d="m41 85 2 2h-2z"/><path fill="#DDEFF1" d="m86 75 3 2z"/><path fill="#E7F2F4" d="m68 62 2 2h-2z"/><path fill="#DBECED" d="m59 55 1 1h1l1 2v-1l-1 1-2-2z"/><path fill="#3F5060" d="m177 201-3 2h-1z"/><path fill="#444F5F" d="m81 193-3 1v1h-2l2-2z"/><path fill="#203B47" d="m161 188 1 1h1v1h2v1h-3z"/><path fill="#27444B" d="m57 186-2 1h-2l1-1z"/><path fill="#263E46" d="m191 176-4 2 1-1 1-1z"/><path fill="#CCE1E9" d="M45 104h2v1l1 1h-2z"/><path fill="#3C5C65" d="m135 105 3 1-1 1-1-1z"/><path fill="#2D4048" d="m77 57 3 2v1z"/><path fill="#41515C" d="m75 55 4 2h-1l-2 1v-1z"/><path fill="#E8F3F2" d="m112 136 1 1h-7l1-1z"/><path fill="#37565E" d="m71 134 3 1-1 1h-2z"/><path fill="#3C5C66" d="M177 122v3h-1v-1z"/><path fill="#3D5D65" d="M133 101v3l-3-2zh1z"/><path fill="#B7D1D9" d="m41 92 3 1h-2v2h-1z"/><path fill="#3D5F60" d="m49 91 2 1-1 1h-1v-1h-1z"/><path fill="#365965" d="m114 90 2 1v1h-1l-1-1z"/><path fill="#DAEBEC" d="m53 49 3 3h-1z"/><path fill="#263D48" d="m45 24 3 3-1 1-1-1v-1h-1z"/><path fill="#283E47" d="M220 196h1l-3 3v-1h1z"/><path fill="#293E46" d="M224 192v2l-1 1h-1l-1 1 1-2 1-1z"/><path fill="#465664" d="m186 179-1 2v-2z"/><path fill="#375559" d="m102 147-1 1-1 1-1-1 1-1z"/><path fill="#415F66" d="m171 137-1 3h-1z"/><path fill="#E4F2F4" d="m42 68 3 2h-1l-2-1z"/><path fill="#3B4A58" d="m135 60 2 2h-1v1h-1z"/><path fill="#223D44" d="m107 1-1 1-1 1h-2l2-1 1-1z"/><path fill="#415160" d="M85 192h-3q1-2 4-1"/><path fill="#253C4A" d="m18 173 2 2v1l1 1-2-1v-1z"/><path fill="#374755" d="M219 134v2l-1 1h-1z"/><path fill="#3C5B61" d="m182 107 1 2-1 1h-1z"/><path fill="#3A4954" d="m196 94 2 2-1 1-1-2z"/><path fill="#E2F4F3" d="m104 86 3 1v1h-1l-1-1z"/><path fill="#263D49" d="m220 70 1 1-1 2v1h-1z"/><path fill="#ECF6F9" d="M39 67h2v1h-2z"/><path fill="#3A5E65" d="m73 65 3 2h-1z"/><path fill="#43525C" d="m70 248 1 1h1l-2 2z"/><path fill="#3A4453" d="m174 179-3 1h-1l2-1z"/><path fill="#33575E" d="M154 164v1l-2 1v-1z"/><path fill="#DCEEF2" d="M61 164h1v2h-2z"/><path fill="#263B45" d="m173 157-2 3 1-3z"/><path fill="#294352" d="m80 148-2 1h-2 1l1-1z"/><path fill="#BDD7D5" d="M78 120h1v1h-1l-3-1z"/><path fill="#2A4751" d="M48 119h2l-1 1v1z"/><path fill="#273B46" d="m204 115 1 4v1l-1-3z"/><path fill="#C6DDDF" d="m55 112-1 1-2-2h2"/><path fill="#38545D" d="M158 100v1h1l-1 2-1-1z"/><path fill="#20333D" d="m193 91 3 4h-1v-1h-1z"/><path fill="#365760" d="m77 67 1 1v1l-2-1z"/><path fill="#3B5F66" d="m36 62-1 1-2-2z"/><path fill="#27404A" d="m35 13-1 1v1h-1l-1 1 1-2h1z"/><path fill="#284049" d="M69 250h-1l-1 1h-2z"/><path fill="#213C47" d="M46 212h-2v1h-1z"/><path fill="#27414A" d="m230 185 1 1-2 3v-2z"/><path fill="#3D4557" d="m60 137 2 2h-1v-1h-1z"/><path fill="#36555D" d="m62 126 2 1v1h-2z"/><path fill="#B4CED2" d="m187 115-4 2 1-2z"/><path fill="#2C3B44" d="m220 103 2 1 1 3z"/><path fill="#27454D" d="m227 77 2 1v1h-1z"/><path fill="#DFF0F1" d="m38 32 2 2h-2z"/><path fill="#C0DBDF" d="M34 31v1l-2 1z"/><path fill="#E1EDEE" d="M123 225h2v1h-2z"/><path fill="#273C48" d="M181 198h1l-3 2z"/><path fill="#29404C" d="m13 164 1 2-1 1z"/><path fill="#C6E0E6" d="M66 162h-1v1l-3-1z"/><path fill="#3B5B60" d="m99 149-3 2v-1z"/><path fill="#496469" d="M109 139h-1v1h-4v-1z"/><path fill="#3D5C66" d="m173 129 1 3h-1z"/><path fill="#E9F3F6" d="m175 111 2 1-2 1z"/><path fill="#223A46" d="m235 106-1 4 1-3z"/><path fill="#395860" d="m44 103 2 1-1 1h-1z"/><path fill="#D9EDEF" d="m130 102 3 1v1h-2z"/><path fill="#ECF5F5" d="m166 97-1 2h-1z"/><path fill="#263E48" d="m222 93 1 1 1 1v2l-1-2z"/><path fill="#425E68" d="M117 93h3v1l-1 1z"/><path fill="#CDE1E4" d="m32 62 2 1-1 1z"/><path fill="#28434E" d="m57 39 2 2v1-1h-2z"/><path fill="#365B63" d="m32 31 1 2h-1z"/><path fill="#E0F0F2" d="m132 221-2-1z"/><path fill="#315563" d="m52 208 1 1v1h-3z"/><path fill="#384853" d="m189 179-2 1h-1v1-2z"/><path fill="#2F4853" d="M32 151h3v1h1-2z"/><path fill="#284248" d="m250 149 1 1-1 1h-1z"/><path fill="#E3EBEB" d="m152 108 1 2h-1v1-1h-1z"/><path fill="#DDF0F2" d="m139 108 2 2h-1z"/><path fill="#D7E4E7" d="m186 98 2 2h-1z"/><path fill="#3C505C" d="m248 95-1 1-1 1z"/><path fill="#D3E7E6" d="m173 95-2 1-2-1z"/><path fill="#C3DADE" d="M41 62h2v1l1 1-1 1z"/><path fill="#223B46" d="m68 49 2 2h-2z"/><path fill="#2C3E4B" d="M74 196h-3v-1z"/><path fill="#344453" d="m236 168 2 1z"/><path fill="#3F6167" d="m149 167-1 2-2-1z"/><path fill="#D6EDF2" d="m70 167 1 1h-1l-2-1z"/><path fill="#3B5E64" d="m157 161 1 1h-2z"/><path fill="#293D44" d="m209 159-1 3z"/><path fill="#253F45" d="m247 152-2 1h-1z"/><path fill="#CBDDE0" d="M163 152h1v2h-1z"/><path fill="#416169" d="M168 145v2l1 1h-2z"/><path fill="#29414E" d="m62 138 1 1 1 1v1z"/><path fill="#BED8DA" d="m114 137-3 1q1-2 3-1"/><path fill="#DFF1F3" d="M73 123v1h-2z"/><path fill="#33575F" d="m261 118 2 1-1 1h-1z"/><path fill="#E0EEF0" d="m142 111 2 2-1 1-1-2z"/><path fill="#E6F0F1" d="m181 112-1-1z"/><path fill="#E4F5F4" d="m45 70 3 1v1l-3-1z"/><path fill="#243A42" d="m138 65 2 2-2-1z"/><path fill="#C7DBDF" d="M39 60h1v1h2l-1 1z"/><path fill="#D0E2E4" d="m64 59 2 1-2 1z"/><path fill="#36565E" d="M58 52v2h-1z"/><path fill="#D4E7E8" d="m137 219-1 1h-2z"/><path fill="#375662" d="M34 218v1h-1z"/><path fill="#E0EDF2" d="m149 219-2 1-1-1z"/><path fill="#DEEFF4" d="M153 214v1l-1 1z"/><path fill="#44505F" d="m203 213-2 1v-2z"/><path fill="#536F76" d="M154 213v2zh-2z"/><path fill="#223A4A" d="m24 180 2 3-2-2z"/><path fill="#2B434D" d="m222 169-1 1-1 1v-2z"/><path fill="#23434C" d="m232 167 1 1h-1z"/><path fill="#375A5F" d="M203 164h2l-1 2h-1z"/><path fill="#244A55" d="M159 160h1v1z"/><path fill="#BBD8D8" d="M111 140v2l-1 1v-1z"/><path fill="#EAF7FA" d="m98 135-3-1z"/><path fill="#243D43" d="m254 126 1 1-2 1h-1l1-1z"/><path fill="#3A535C" d="M259 122v1h1l-1 1v-1h-1z"/><path fill="#324755" d="M51 122h1v2h-1z"/><path fill="#596F79" d="m147 113-1 2-1-1z"/><path fill="#E6EFF1" d="M181 104h1v1h1-1v1z"/><path fill="#273F45" d="m239 103-2 1h-1q2-2 3-1"/><path fill="#38585E" d="m35 78 1 1v2l-1-1z"/></svg>